<svg width="9" height="20" viewBox="0 0 9 20" fill="none" xmlns="http://www.w3.org/2000/svg">
<g id="Group 11">
<path id="Vector" d="M5.92065 6.00114C7.19801 5.7938 8.06542 4.59021 7.85808 3.31285C7.65073 2.0355 6.44715 1.16808 5.16979 1.37542C3.89244 1.58277 3.02502 2.78636 3.23236 4.06371C3.43971 5.34107 4.64329 6.20848 5.92065 6.00114Z" stroke="#64E7D2" stroke-miterlimit="10" stroke-linecap="round" stroke-linejoin="round"/>
<path id="Vector_2" d="M2.86354 10.6598L1.97016 15.8536C1.83455 16.6412 1.97813 17.4588 2.41086 18.1309C2.85157 18.8149 3.63527 19.461 5.0242 19.461C6.48591 19.461 7.36234 18.7889 7.87484 18.1099L7.35337 17.1498C6.5916 17.4429 5.83482 17.2694 5.73512 16.5027C5.71916 16.381 5.72514 16.2574 5.74608 16.1367L7.1051 8.23489H1V10.2221" stroke="#64E7D2" stroke-miterlimit="10" stroke-linecap="round" stroke-linejoin="round"/>
</g>
</svg>
