<svg width="20" height="23" viewBox="0 0 20 23" fill="none" xmlns="http://www.w3.org/2000/svg">
<g id="Group 9">
<path id="Vector" d="M5.05448 5.95833L1.34448 4.5L7.28087 2.16667L10.25 1L19.1556 4.5L15.4456 5.95833L10.25 8L5.05448 5.95833Z" fill="white"/>
<path id="Vector_2" d="M16.9292 15.7C18.162 15.7 19.1556 16.9522 19.1556 18.5C19.1556 20.0478 18.162 21.3 16.9292 21.3L16.2234 21.1522C14.7475 20.845 13.2406 20.6486 11.7336 20.5728V16.4272C13.2406 16.3514 14.7475 16.155 16.2234 15.8478L16.9292 15.7Z" fill="white"/>
<path id="Vector_3" d="M16.9292 15.7L16.2233 15.8478C16.4469 15.7486 16.6842 15.7 16.9292 15.7Z" fill="white"/>
<path id="Vector_4" d="M16.2233 21.1522L16.9292 21.3C16.6842 21.3 16.4469 21.2514 16.2233 21.1522Z" fill="white"/>
<path id="Vector_5" d="M15.4456 5.95834V10.1L10.25 12.2L5.05447 10.1V5.95834L10.25 8.00001L15.4456 5.95834Z" fill="white"/>
<path id="Vector_6" d="M11.7337 20.5728V22L10.2501 21.3L8.76645 22V16.4C8.76645 16.0131 9.09895 15.7 9.50728 15.7H10.9928C11.4012 15.7 11.7337 16.0131 11.7337 16.4V20.5728Z" fill="white"/>
<path id="Vector_7" d="M8.76636 16.4272V20.5728C7.25942 20.6486 5.75248 20.845 4.27664 21.1522C4.33109 21.1289 4.38553 21.1036 4.43803 21.0744H4.43998C4.65192 20.9617 4.84831 20.8081 5.01942 20.6214C5.06414 20.5747 5.10497 20.5281 5.14581 20.4775C5.17109 20.4444 5.19636 20.4114 5.2197 20.3783C5.24692 20.3433 5.2722 20.3064 5.29359 20.2694C5.32081 20.2306 5.34414 20.1917 5.36748 20.1528C5.40053 20.0944 5.43164 20.0361 5.46275 19.9739C5.61442 19.6686 5.71942 19.3244 5.76803 18.955C5.78747 18.8072 5.7972 18.6556 5.7972 18.5C5.7972 17.2614 5.15942 16.2172 4.27664 15.8478C5.75248 16.155 7.25942 16.3514 8.76636 16.4272Z" fill="white"/>
<path id="Vector_8" d="M5.79726 18.5C5.79726 18.6556 5.78754 18.8072 5.76809 18.955C5.71754 19.3245 5.61254 19.6686 5.46282 19.9739C5.4317 20.0361 5.40059 20.0945 5.36754 20.1528C5.3442 20.1917 5.32087 20.2306 5.29365 20.2695C5.27032 20.3064 5.24504 20.3433 5.21976 20.3783C5.19643 20.4114 5.17115 20.4445 5.14587 20.4775C5.10504 20.5281 5.06226 20.5747 5.01948 20.6214C4.84643 20.8061 4.65198 20.9597 4.44004 21.0745H4.43809C4.38559 21.1017 4.33115 21.1289 4.2767 21.1522L3.57087 21.3C2.33809 21.3 1.34448 20.0478 1.34448 18.5C1.34448 16.9522 2.33809 15.7 3.57087 15.7L4.2767 15.8478C5.15948 16.2172 5.79726 17.2614 5.79726 18.5Z" fill="white"/>
<path id="Vector_9" d="M5.76811 18.955C5.7195 19.3244 5.6145 19.6686 5.46283 19.9739C5.61255 19.6686 5.71755 19.3244 5.76811 18.955Z" fill="white"/>
<path id="Vector_10" d="M5.01941 20.6214C5.06219 20.5747 5.10496 20.5281 5.1458 20.4775C5.10496 20.5281 5.06413 20.5747 5.01941 20.6214Z" fill="white"/>
<path id="Vector_11" d="M4.44003 21.0744C4.65198 20.9597 4.84642 20.8061 5.01948 20.6214C4.84837 20.808 4.65198 20.9616 4.44003 21.0744Z" fill="white"/>
<path id="Vector_12" d="M4.27664 21.1522C4.33109 21.1289 4.38553 21.1017 4.43803 21.0744C4.38553 21.1036 4.33109 21.1289 4.27664 21.1522Z" fill="white"/>
<path id="Vector_13" d="M4.2767 15.8478L3.57086 15.7C3.81586 15.7 4.05308 15.7486 4.2767 15.8478Z" fill="white"/>
<path id="Vector_14" d="M3.57086 21.3L4.2767 21.1522C4.05308 21.2514 3.81586 21.3 3.57086 21.3Z" fill="white"/>
<path id="Vector_15" d="M7.28087 2.16667L1.34448 4.5L5.05448 5.95833L10.25 8L15.4456 5.95833L19.1556 4.5L10.25 1L7.28087 2.16667Z" stroke="#64E7D2" stroke-linecap="round" stroke-linejoin="round"/>
<path id="Vector_16" d="M3.57087 21.3C2.33809 21.3 1.34448 20.0478 1.34448 18.5C1.34448 16.9522 2.33809 15.7 3.57087 15.7" stroke="#64E7D2" stroke-linecap="round" stroke-linejoin="round"/>
<path id="Vector_17" d="M4.43803 21.0744C4.38553 21.1036 4.33109 21.1289 4.27664 21.1522" stroke="#64E7D2" stroke-linecap="round" stroke-linejoin="round"/>
<path id="Vector_18" d="M5.14587 20.4775C5.10503 20.5281 5.0642 20.5747 5.01948 20.6214C4.84837 20.8081 4.65198 20.9617 4.44003 21.0745" stroke="#64E7D2" stroke-linecap="round" stroke-linejoin="round"/>
<path id="Vector_19" d="M5.29362 20.2694C5.27028 20.3064 5.245 20.3433 5.21973 20.3783" stroke="#64E7D2" stroke-linecap="round" stroke-linejoin="round"/>
<path id="Vector_20" d="M5.76811 18.955C5.7195 19.3244 5.6145 19.6686 5.46283 19.9739" stroke="#64E7D2" stroke-linecap="round" stroke-linejoin="round"/>
<path id="Vector_21" d="M3.57086 21.3L4.2767 21.1522C4.05308 21.2514 3.81586 21.3 3.57086 21.3Z" stroke="#64E7D2" stroke-linecap="round" stroke-linejoin="round"/>
<path id="Vector_22" d="M4.2767 15.8478L3.57086 15.7C3.81586 15.7 4.05308 15.7486 4.2767 15.8478Z" stroke="#64E7D2" stroke-linecap="round" stroke-linejoin="round"/>
<path id="Vector_23" d="M11.7336 16.4272C13.2406 16.3514 14.7475 16.155 16.2234 15.8478L16.9292 15.7C18.162 15.7 19.1556 16.9522 19.1556 18.5C19.1556 20.0478 18.162 21.3 16.9292 21.3L16.2234 21.1522C14.7475 20.845 13.2406 20.6486 11.7336 20.5728" stroke="#64E7D2" stroke-linecap="round" stroke-linejoin="round"/>
<path id="Vector_24" d="M8.76636 20.5728C7.25942 20.6486 5.75248 20.845 4.27664 21.1522C4.33109 21.1289 4.38553 21.1017 4.43803 21.0744H4.43998C4.65192 20.9597 4.84636 20.8061 5.01942 20.6214C5.0622 20.5747 5.10497 20.5281 5.14581 20.4775C5.17109 20.4444 5.19636 20.4114 5.2197 20.3783C5.24692 20.3433 5.2722 20.3064 5.29359 20.2694C5.32081 20.2306 5.34414 20.1917 5.36748 20.1528C5.40053 20.0944 5.43164 20.0361 5.46275 19.9739C5.61248 19.6686 5.71747 19.3244 5.76803 18.955C5.78747 18.8072 5.7972 18.6556 5.7972 18.5C5.7972 17.2614 5.15942 16.2172 4.27664 15.8478C5.75248 16.155 7.25942 16.3514 8.76636 16.4272" stroke="#64E7D2" stroke-linecap="round" stroke-linejoin="round"/>
<path id="Vector_25" d="M16.9292 21.3C16.6842 21.3 16.4469 21.2514 16.2233 21.1522" stroke="#64E7D2" stroke-linecap="round" stroke-linejoin="round"/>
<path id="Vector_26" d="M16.9292 15.7C16.6842 15.7 16.4469 15.7486 16.2233 15.8478" stroke="#64E7D2" stroke-linecap="round" stroke-linejoin="round"/>
<path id="Vector_27" d="M11.7337 20.5728V22L10.2501 21.3L8.76645 22V16.4C8.76645 16.0131 9.09895 15.7 9.50728 15.7H10.9928C11.4012 15.7 11.7337 16.0131 11.7337 16.4V20.5728Z" stroke="#64E7D2" stroke-linecap="round" stroke-linejoin="round"/>
<path id="Vector_28" d="M15.4456 10.1L10.25 12.2L5.05447 10.1V5.95833V5.95639" stroke="#64E7D2" stroke-linecap="round" stroke-linejoin="round"/>
<path id="Vector_29" d="M10.25 4.5L15.4456 5.95639V5.95833V10.1V12.9" stroke="#64E7D2" stroke-linecap="round" stroke-linejoin="round"/>
</g>
</svg>
