<svg width="19" height="19" viewBox="0 0 19 19" fill="none" xmlns="http://www.w3.org/2000/svg">
<g id="Group 8">
<path id="Vector" d="M18.1846 8.23003H14.882V1.31245C14.882 1.1406 14.7414 1 14.5696 1H1.31245C1.1406 1 1 1.1406 1 1.31245V16.3755C1 17.5472 1.94984 18.4939 3.12152 18.4971H16.3787C17.5503 18.4971 18.4971 17.5472 18.5002 16.3755V8.54248C18.5002 8.37063 18.3596 8.23003 18.1877 8.23003H18.1846Z" stroke="#64E7D2" stroke-miterlimit="10" stroke-linecap="round" stroke-linejoin="round"/>
<path id="Vector_2" d="M12.1574 3.30585H3.72135C3.54951 3.30585 3.40891 3.44645 3.40891 3.61829V7.66761C3.40891 7.83946 3.54951 7.98006 3.72135 7.98006H12.1574C12.3293 7.98006 12.4699 7.83946 12.4699 7.66761V3.61829C12.4699 3.44645 12.3293 3.30585 12.1574 3.30585Z" stroke="#64E7D2" stroke-miterlimit="10" stroke-linecap="round" stroke-linejoin="round"/>
<path id="Vector_3" d="M11.7451 10H9.25489C9.1147 10 9 10.1805 9 10.4011V15.5989C9 15.8195 9.1147 16 9.25489 16H11.7451C11.8853 16 12 15.8195 12 15.5989V10.4011C12 10.1805 11.8853 10 11.7451 10Z" stroke="#64E7D2" stroke-miterlimit="10" stroke-linecap="round" stroke-linejoin="round"/>
<g id="Vector_4">
<path d="M7 11H4H7Z" fill="#64E7D2"/>
<path d="M7 11H4" stroke="#64E7D2" stroke-miterlimit="10" stroke-linecap="round" stroke-linejoin="round"/>
</g>
<g id="Vector_5">
<path d="M7 15H4H7Z" fill="#64E7D2"/>
<path d="M7 15H4" stroke="#64E7D2" stroke-miterlimit="10" stroke-linecap="round" stroke-linejoin="round"/>
</g>
<g id="Vector_6">
<path d="M7 13H4H7Z" fill="#64E7D2"/>
<path d="M7 13H4" stroke="#64E7D2" stroke-miterlimit="10" stroke-linecap="round" stroke-linejoin="round"/>
</g>
<path id="Vector_7" d="M14.882 8.38315V18.3658" stroke="#64E7D2" stroke-miterlimit="10" stroke-linecap="round" stroke-linejoin="round"/>
</g>
</svg>
