<svg width="17" height="17" viewBox="0 0 17 17" fill="none" xmlns="http://www.w3.org/2000/svg">
<g id="Group 6">
<path id="Vector" d="M8.37823 4.53146C10.5946 4.53146 12.3905 6.32831 12.3905 8.54373" stroke="#64E7D2" stroke-miterlimit="10" stroke-linecap="round" stroke-linejoin="round"/>
<path id="Vector_2" d="M8.37823 1C12.5442 1 15.922 4.37781 15.922 8.54374" stroke="#64E7D2" stroke-miterlimit="10" stroke-linecap="round" stroke-linejoin="round"/>
<path id="Vector_3" d="M14.654 14.6536C15.0009 14.1313 15.2206 13.6138 15.2753 13.1019C15.3054 12.8171 15.1518 12.5438 14.8925 12.4221L11.7164 10.9392C11.4921 10.8346 11.2243 10.9006 11.0754 11.0985C10.9434 11.2739 10.8077 11.4455 10.6681 11.6133C10.1364 12.2534 9.2135 12.4118 8.50173 11.9809C7.92761 11.6331 7.3252 11.1777 6.57385 10.4264C5.82249 9.67408 5.36715 9.07262 5.01928 8.49849C4.58845 7.78673 4.74683 6.8638 5.38695 6.3321C5.55475 6.19257 5.72727 6.05588 5.90168 5.92484C6.09965 5.77588 6.16659 5.50815 6.061 5.28378L4.57808 2.10771C4.45647 1.84846 4.18402 1.69386 3.89837 1.72497C3.38647 1.77964 2.86797 2.00024 2.34664 2.34623C-0.348633 4.43815 1.30398 9.02925 4.63748 12.3628C7.97192 15.6953 12.5621 17.3489 14.654 14.6536Z" stroke="#64E7D2" stroke-miterlimit="10" stroke-linecap="round" stroke-linejoin="round"/>
</g>
</svg>
   