<svg width="22" height="64" viewBox="0 0 22 64" fill="none" xmlns="http://www.w3.org/2000/svg">
<g id="Group 10">
<path id="Vector" d="M21.1272 18.5582V20H13.8763V18.5582C13.8763 16.5558 15.4994 14.9327 17.5018 14.9327C18.5021 14.9327 19.4085 15.3389 20.0648 15.9952C20.721 16.6515 21.1272 17.5578 21.1272 18.5582Z" fill="white"/>
<path id="Vector_2" d="M17.5017 14.9328C18.8365 14.9328 19.9186 13.7988 19.9186 12.4C19.9186 11.0012 18.8365 9.86725 17.5017 9.86725C16.1668 9.86725 15.0847 11.0012 15.0847 12.4C15.0847 13.7988 16.1668 14.9328 17.5017 14.9328Z" fill="white"/>
<path id="Vector_3" d="M17.5018 3.53279V9.86724C16.1674 9.86724 15.0848 11.0002 15.0848 12.4C15.0848 13.7998 16.1674 14.9328 17.5018 14.9328H4.20848C3.54046 14.9328 3 14.3672 3 13.6672V3.53279C3 2.83456 3.54046 2.26724 4.20848 2.26724H16.2933C16.9613 2.26724 17.5018 2.83456 17.5018 3.53279Z" fill="white"/>
<path id="Vector_4" d="M17.5018 14.9328H4.20848C3.54046 14.9328 3 14.3672 3 13.6672V3.53279C3 2.83456 3.54046 2.26724 4.20848 2.26724H16.2933C16.9613 2.26724 17.5018 2.83456 17.5018 3.53279V9.86724" stroke="#64E7D2" stroke-linecap="round" stroke-linejoin="round"/>
<path id="Vector_5" d="M17.5017 14.9328C18.8365 14.9328 19.9186 13.7988 19.9186 12.4C19.9186 11.0012 18.8365 9.86725 17.5017 9.86725C16.1668 9.86725 15.0847 11.0012 15.0847 12.4C15.0847 13.7988 16.1668 14.9328 17.5017 14.9328Z" stroke="#64E7D2" stroke-linecap="round" stroke-linejoin="round"/>
<path id="Vector_6" d="M21.1272 20H13.8763V18.5582C13.8763 16.5558 15.4994 14.9327 17.5018 14.9327C18.5021 14.9327 19.4085 15.3389 20.0648 15.9952C20.721 16.6515 21.1272 17.5578 21.1272 18.5582V20Z" stroke="#64E7D2" stroke-linecap="round" stroke-linejoin="round"/>
<path id="Vector_7" d="M4.81274 2.26723V1" stroke="#64E7D2" stroke-linecap="round" stroke-linejoin="round"/>
<path id="Vector_8" d="M15.6891 2.26723V1" stroke="#64E7D2" stroke-linecap="round" stroke-linejoin="round"/>
<path id="Vector_9" d="M7.22968 4.79999H15.0848" stroke="#64E7D2" stroke-linecap="round" stroke-linejoin="round"/>
<path id="Vector_10" d="M5.41687 7.33276H15.0847" stroke="#64E7D2" stroke-linecap="round" stroke-linejoin="round"/>
<path id="Vector_11" d="M5.41687 9.86725H13.272" stroke="#64E7D2" stroke-linecap="round" stroke-linejoin="round"/>
<path id="Vector_12" d="M5.41687 12.4H12.6678" stroke="#64E7D2" stroke-linecap="round" stroke-linejoin="round"/>
<g id="Group 35">
<path id="Vector_13" d="M2.29624 61.1513H1.00562V63.2278H20.9944V61.1513H19.6619" stroke="#64E7D2" stroke-linecap="round" stroke-linejoin="round"/>
<path id="Vector_14" d="M13.2863 59.0747H2.33813V61.1513H6.69251" stroke="#64E7D2" stroke-linecap="round" stroke-linejoin="round"/>
<path id="Vector_15" d="M8.71313 61.1513H19.6619V59.0747H15.2756" stroke="#64E7D2" stroke-linecap="round" stroke-linejoin="round"/>
<path id="Vector_16" d="M6.60875 50.6459H1L11 45L21 50.6459H8.63" stroke="#64E7D2" stroke-linecap="round" stroke-linejoin="round"/>
<path id="Vector_17" d="M5.77812 50.6459H3.69437V59.0747H5.77812V50.6459Z" stroke="#64E7D2" stroke-miterlimit="10" stroke-linecap="round"/>
<path id="Vector_18" d="M16.2219 59.0747H18.3056V50.6459H16.2219V59.0747Z" stroke="#64E7D2" stroke-miterlimit="10" stroke-linecap="round"/>
<path id="Vector_19" d="M12.0419 50.6459H9.95813V59.0747H12.0419V50.6459Z" stroke="#64E7D2" stroke-miterlimit="10" stroke-linecap="round"/>
</g>
</g>
</svg>
